<svg width="24" height="36" viewBox="0 0 24 36" fill="none" xmlns="http://www.w3.org/2000/svg">
<g clip-path="url(#clip0_12_136)">
<path d="M11.8961 2.93302C15.2698 6.9011 17.0708 11.7944 17.0055 16.8155V18.0141L18.1186 18.6416C19.5568 19.4482 20.6294 20.6993 21.141 22.1669C20.6918 21.8605 20.2219 21.5803 19.7341 21.3278L16.7659 19.7838L16.2325 22.9001C16.1863 23.1755 16.1244 23.4485 16.047 23.718H7.72971C7.60604 23.3655 7.50555 23.0129 7.41279 22.6463L6.7403 19.8261L4.00394 21.2362C3.54679 21.473 3.10542 21.7344 2.68214 22.0188C3.20365 20.5682 4.25386 19.3242 5.65812 18.4935L6.71711 17.866V16.7521C6.73621 11.7513 8.55885 6.89523 11.9038 2.93302H11.8961ZM11.9038 0C11.7303 0.000390307 11.5629 0.0579856 11.4323 0.162162L11.3627 0.218566C6.90538 4.76564 4.43026 10.6454 4.40589 16.745C2.5144 17.8643 1.11428 19.5543 0.450213 21.5197C-0.213858 23.485 -0.0996537 25.6007 0.772869 27.4971C1.69202 25.6455 3.22855 24.1058 5.16341 23.0975C5.35746 23.8642 5.61588 24.6161 5.93639 25.3467C5.97704 25.4871 6.06714 25.6114 6.19283 25.7006C6.31852 25.7898 6.47285 25.8388 6.63208 25.8402H17.3611C17.5775 25.8402 17.794 25.6498 17.9022 25.3537C18.215 24.6592 18.4331 23.9322 18.5515 23.1892C20.49 24.1932 22.0278 25.7342 22.942 27.5887C23.8672 25.7017 24.0104 23.5727 23.3452 21.5967C22.6799 19.6206 21.2513 17.9319 19.3245 16.8437C19.4009 10.7082 16.9389 4.77179 12.4294 0.218566C12.3623 0.150085 12.2801 0.0952397 12.1882 0.0575871C12.0964 0.0199344 11.9968 0.000314749 11.8961 0L11.9038 0Z" fill="#4EA8DE"/>
<path d="M11.896 16.1598C11.3023 16.1598 10.7218 15.9995 10.2279 15.699C9.7339 15.3986 9.3485 14.9715 9.12025 14.4716C8.892 13.9716 8.83111 13.4213 8.94526 12.8898C9.05942 12.3584 9.34351 11.8697 9.76171 11.4853C10.1799 11.1009 10.7135 10.838 11.2953 10.7298C11.877 10.6216 12.4809 10.6729 13.0307 10.8773C13.5805 11.0816 14.0517 11.4298 14.3849 11.8781C14.7181 12.3263 14.8983 12.8545 14.9029 13.396V13.396C14.9121 13.7469 14.8455 14.0961 14.7067 14.4235C14.568 14.751 14.3599 15.0503 14.0943 15.3043C13.8287 15.5583 13.5108 15.7622 13.1588 15.9041C12.8068 16.0461 12.4276 16.1234 12.0428 16.1316C11.9942 16.1387 11.9446 16.1387 11.896 16.1316V16.1598Z" fill="#4EA8DE"/>
<path d="M16.078 27.5958C15.8845 27.5901 15.6918 27.6198 15.5112 27.683C15.3305 27.7462 15.1655 27.8416 15.0258 27.9638C14.8861 28.086 14.7746 28.2323 14.6977 28.3943C14.6209 28.5563 14.5803 28.7307 14.5784 28.9072V33.067C14.5784 33.4297 14.7364 33.7776 15.0176 34.0342C15.2988 34.2907 15.6802 34.4348 16.078 34.4348C16.4757 34.4348 16.8571 34.2907 17.1383 34.0342C17.4196 33.7776 17.5775 33.4297 17.5775 33.067V28.9636C17.5837 28.7877 17.5515 28.6126 17.4827 28.4482C17.4138 28.2839 17.3099 28.1337 17.1768 28.0064C17.0437 27.879 16.8841 27.7772 16.7074 27.7067C16.5307 27.6362 16.3404 27.5985 16.1475 27.5958H16.078Z" fill="#5E60CE"/>
<path d="M7.7298 27.5958C7.53311 27.5863 7.33633 27.613 7.15118 27.6743C6.96602 27.7356 6.79628 27.8302 6.65204 27.9526C6.5078 28.0749 6.39202 28.2225 6.31159 28.3865C6.23116 28.5505 6.18771 28.7275 6.18384 28.9072V33.067C6.18384 33.4297 6.34183 33.7777 6.62306 34.0342C6.90428 34.2907 7.28571 34.4348 7.68342 34.4348C8.08114 34.4348 8.46257 34.2907 8.74379 34.0342C9.02502 33.7777 9.18301 33.4297 9.18301 33.067V28.9636C9.18919 28.7877 9.15693 28.6126 9.08812 28.4482C9.01932 28.2839 8.91533 28.1337 8.78223 28.0064C8.64913 27.879 8.48957 27.7772 8.31287 27.7067C8.13616 27.6362 7.94584 27.5985 7.75299 27.5958H7.7298Z" fill="#5E60CE"/>
<path d="M11.7879 27.5958C11.595 27.592 11.4032 27.623 11.2235 27.6869C11.0437 27.7507 10.8795 27.8463 10.7403 27.9681C10.601 28.0899 10.4894 28.2355 10.4119 28.3966C10.3343 28.5577 10.2923 28.7312 10.2883 28.9072V34.6392C10.2883 35.002 10.4463 35.3499 10.7275 35.6064C11.0088 35.8629 11.3902 36.007 11.7879 36.007C12.1856 36.007 12.5671 35.8629 12.8483 35.6064C13.1295 35.3499 13.2875 35.002 13.2875 34.6392V28.9988C13.2937 28.823 13.2614 28.6478 13.1926 28.4835C13.1238 28.3191 13.0198 28.1689 12.8867 28.0416C12.7536 27.9143 12.5941 27.8124 12.4174 27.7419C12.2407 27.6714 12.0503 27.6337 11.8575 27.631L11.7879 27.5958Z" fill="#5E60CE"/>
</g>
<defs>
<clipPath id="clip0_12_136">
<rect width="23.746" height="36" fill="white"/>
</clipPath>
</defs>
</svg>
